<svg width="60" height="50" viewBox="0 0 60 50" fill="none" xmlns="http://www.w3.org/2000/svg">
<path d="M11.68 8L10.847 3H7.857C7.411 1.28 5.859 0 4 0C1.794 0 0 1.794 0 4C0 6.206 1.794 8 4 8C5.859 8 7.411 6.72 7.858 5H9.152L9.652 8H9.614L14.785 34.016C12.32 34.204 10.267 36.102 10.025 38.49C9.883 39.895 10.345 41.302 11.293 42.348C12.242 43.397 13.594 44 15 44H17C17 47.309 19.691 50 23 50C26.309 50 29 47.309 29 44H40C40 47.309 42.691 50 46 50C49.309 50 52 47.309 52 44H56C56.553 44 57 43.553 57 43C57 42.447 56.553 42 56 42H51.65C50.824 39.673 48.607 38 46 38C43.393 38 41.176 39.673 40.35 42H28.65C27.824 39.673 25.607 38 23 38C20.393 38 18.176 39.673 17.35 42H15C14.158 42 13.348 41.638 12.776 41.007C12.199 40.368 11.928 39.546 12.015 38.691C12.167 37.182 13.561 36.001 15.188 36.001H15.979C15.993 36.001 16.004 36.001 16.018 36.001H55.012C57.763 36 60 33.763 60 31.013V8H11.68ZM4 6C2.897 6 2 5.103 2 4C2 2.897 2.897 2 4 2C5.103 2 6 2.897 6 4C6 5.103 5.103 6 4 6Z" fill="white"/>
<rect x="30" y="14" width="16" height="16" fill="#DA0037"/>
<path d="M40.3916 23.6177C40.3916 23.2026 40.2339 22.8817 39.9185 22.6548C39.6086 22.4224 39.0635 22.2231 38.2832 22.0571C37.5085 21.8911 36.8914 21.6919 36.4321 21.4595C35.9784 21.2271 35.6408 20.9504 35.4194 20.6294C35.2036 20.3084 35.0957 19.9266 35.0957 19.4839C35.0957 18.7479 35.4056 18.1253 36.0254 17.6162C36.6507 17.1071 37.4476 16.8525 38.416 16.8525C39.4342 16.8525 40.2588 17.1154 40.8896 17.6411C41.526 18.1668 41.8442 18.8392 41.8442 19.6582H40.3003C40.3003 19.2376 40.1204 18.8752 39.7607 18.5708C39.4066 18.2664 38.9583 18.1143 38.416 18.1143C37.8571 18.1143 37.4199 18.236 37.1045 18.4795C36.7891 18.723 36.6313 19.0412 36.6313 19.4341C36.6313 19.8049 36.778 20.0843 37.0713 20.2725C37.3646 20.4606 37.8931 20.6405 38.6567 20.812C39.4259 20.9836 40.0485 21.1883 40.5244 21.4263C41.0003 21.6642 41.3517 21.952 41.5786 22.2896C41.811 22.6216 41.9272 23.0283 41.9272 23.5098C41.9272 24.3122 41.6063 24.9569 40.9644 25.4438C40.3224 25.9253 39.4896 26.166 38.4658 26.166C37.7464 26.166 37.11 26.0387 36.5566 25.7842C36.0033 25.5296 35.5688 25.1755 35.2534 24.7217C34.9435 24.2624 34.7886 23.7671 34.7886 23.2358H36.3242C36.3519 23.7505 36.5566 24.16 36.9385 24.4644C37.3258 24.7632 37.835 24.9126 38.4658 24.9126C39.0469 24.9126 39.5117 24.7964 39.8604 24.564C40.2145 24.326 40.3916 24.0106 40.3916 23.6177Z" fill="#EDEDED"/>
</svg>
